<svg xmlns="http://www.w3.org/2000/svg"  viewBox="0 0 64 64" width="512px" height="512px"><path fill="#8d6c9f" d="M17.236 28.834c-.205.513-.787.762-1.3.557l-1.857-.742c-.513-.205-.762-.787-.557-1.3.205-.513.787-.762 1.3-.557l1.857.742C17.191 27.739 17.44 28.321 17.236 28.834zM19.091 24.191c-.205.513-.787.762-1.3.557l-1.857-.742c-.513-.205-.762-.787-.557-1.3.205-.513.787-.762 1.3-.557l1.857.742C19.047 23.096 19.296 23.678 19.091 24.191zM20.947 19.548c-.205.513-.787.762-1.3.557l-1.857-.742c-.513-.205-.762-.787-.557-1.3.205-.513.787-.762 1.3-.557l1.857.742C20.902 18.453 21.152 19.036 20.947 19.548zM22.803 14.905c-.205.513-.787.762-1.3.557l-1.857-.742c-.513-.205-.762-.787-.557-1.3.205-.513.787-.762 1.3-.557l1.857.742C22.758 13.81 23.008 14.393 22.803 14.905zM24.659 10.262c-.205.513-.787.762-1.3.557l-1.857-.742c-.513-.205-.762-.787-.557-1.3.205-.513.787-.762 1.3-.557l1.857.742C24.614 9.168 24.864 9.75 24.659 10.262zM26.515 5.62c-.205.513-.787.762-1.3.557l-1.857-.742c-.513-.205-.762-.787-.557-1.3.205-.513.787-.762 1.3-.557l1.857.742C26.47 4.525 26.72 5.107 26.515 5.62zM9.228 52.841c0 0 8.348 10.21 22.865 10.159 14.795-.053 22.679-10.056 22.679-10.056-.266-.158-.452-.253-.774-.428-7.97 6.182-18.903 10.502-21.951 5.069-1.659 4.486-12.077 2.191-21.78-5.112C9.811 52.643 9.62 52.748 9.228 52.841zM17.078 51.172L17.52 48.409 42.22 33.9 44.26 34.437zM28.219 39.548L27.955 38.575 38.928 30.447 40.018 32.283z"/><g><path fill="#fff8ee" d="M35.874,56.632c-0.339,0-0.658-0.172-0.844-0.463c-0.211-0.331-0.208-0.755,0.007-1.084 c0.103-0.157,0.245-0.438,0.329-0.601c0.115-0.223,0.245-0.476,0.595-0.615c8.548-3.557,6.814-8.063,6.245-9.543 c-1.068-2.487-2.361-6.042-2.415-6.191c-0.161-0.443,0.009-0.938,0.408-1.189l3.452-2.164c0.16-0.101,0.345-0.152,0.531-0.152 c0.077,0,0.155,0.009,0.231,0.027c0.261,0.062,0.486,0.227,0.625,0.456c0.059,0.096,1.543,2.442,4.462,2.442 c1.163,0,2.425-0.375,3.748-1.115c0.153-0.085,0.321-0.127,0.488-0.127c0.235,0,0.469,0.083,0.655,0.245 c0.318,0.275,0.43,0.722,0.277,1.114c-0.666,1.729-2.053,5.325-0.322,9.78c0.146,0.376,0.053,0.803-0.238,1.082 c-0.189,0.184-0.439,0.28-0.693,0.28c-0.134,0-0.269-0.026-0.396-0.082c-0.221-0.095-0.529-0.147-0.87-0.147 c-0.812,0-1.905,0.313-2.518,1.012c-0.051,0.058-5.182,5.813-13.615,7.025C35.969,56.629,35.921,56.632,35.874,56.632z M28.65,56.587c-2.644-0.27-8.071-2.025-11.325-4.94c-0.242-0.217-0.363-0.538-0.326-0.86c0.03-0.257,0.157-0.489,0.352-0.652 c-0.091,0.026-0.184,0.039-0.276,0.039c-0.271,0-0.537-0.109-0.731-0.317c-2.336-2.5-3.6-2.837-4.527-2.837 c-0.36,0-0.722,0.053-1.105,0.108l-0.147,0.021c-0.047,0.007-0.095,0.01-0.142,0.01c-0.317,0-0.62-0.151-0.809-0.412 c-0.218-0.301-0.252-0.696-0.088-1.029c1.812-3.686,0.804-6.699-0.005-9.121l-0.209-0.633c-0.127-0.396,0.002-0.827,0.326-1.087 c0.182-0.146,0.403-0.221,0.626-0.221c0.174,0,0.349,0.045,0.505,0.138c1.332,0.78,2.583,1.176,3.717,1.176 c2.867,0,5.234-2.553,7.037-7.587c0.08-0.225,0.142-0.394,0.184-0.493l9.808-25.181c0.116-0.343,0.41-0.613,0.778-0.676 c0.06-0.011,0.119-0.016,0.178-0.016c0.404,0,0.776,0.236,0.925,0.626l9.755,25.493c0.676,1.951,1.447,3.286,1.98,4.078 c0.156,0.231,0.208,0.518,0.145,0.789c-0.064,0.271-0.239,0.503-0.482,0.641l-3.31,1.867c-0.151,0.085-0.321,0.129-0.491,0.129 c-0.115,0-0.229-0.02-0.34-0.06c-0.274-0.1-0.491-0.313-0.595-0.586c-2.513-6.618-5.879-15.577-7.615-20.204 c-2.625,6.908-9.813,25.809-10.741,27.99c-0.937,2.205-0.311,3.901-0.305,3.918c0.17,0.427,0.027,0.915-0.346,1.183 c-0.047,0.034-0.783,0.56-1.767,1.172c0.759-0.418,1.356-0.749,1.356-0.749c0.15-0.084,0.317-0.126,0.485-0.126 c0.101,0,0.202,0.016,0.299,0.046c0.261,0.082,0.478,0.268,0.598,0.513c0.013,0.025,1.634,3.126,6.824,5.261 c0.25,0.103,0.447,0.302,0.547,0.552c0.058,0.145,0.102,0.242,0.142,0.333c0.047,0.105,0.091,0.204,0.145,0.34 c0.129,0.325,0.08,0.693-0.131,0.973c-0.19,0.252-0.487,0.397-0.798,0.397C28.718,56.592,28.684,56.59,28.65,56.587z"/><path fill="#8d6c9f" d="M32.461,3l9.756,25.493c0.13,0.374,0.783,2.346,2.084,4.279l-3.309,1.868 c-3.111-8.197-7.533-19.985-8.544-22.681C31.219,15.194,21.831,39.918,20.78,42.39c-1.124,2.646-0.313,4.679-0.313,4.679 s-1.706,1.222-3.392,2.104c-2.454-2.626-3.967-3.154-5.258-3.154c-0.483,0-0.934,0.074-1.393,0.139 c2.168-4.409,0.642-8.017-0.161-10.503c1.585,0.929,2.988,1.313,4.223,1.313c5.554,0,7.747-7.76,8.141-8.689L32.46,3.035L32.461,3 M44.183,35.629c0,0,1.767,2.926,5.317,2.926c1.206,0,2.618-0.338,4.236-1.242c-0.803,2.084-2.128,5.853-0.321,10.503 c-0.353-0.153-0.793-0.23-1.267-0.23c-1.14,0-2.475,0.446-3.269,1.352c-1.124,1.283-6.021,5.692-13.006,6.694 c0.173-0.265,0.449-0.83,0.458-0.834c4.476-1.862,8.999-5.135,6.808-10.831c-1.084-2.525-2.409-6.173-2.409-6.173L44.183,35.629 M21.124,49.178c0,0,1.678,3.415,7.341,5.744c0.124,0.309,0.186,0.421,0.286,0.67c-2.368-0.24-7.627-1.884-10.758-4.69 C19.318,50.18,21.124,49.178,21.124,49.178 M32.462,1c-0.112,0-0.225,0.009-0.338,0.029c-0.784,0.134-1.398,0.714-1.596,1.455 L20.77,27.536c-0.046,0.113-0.109,0.286-0.189,0.508c-1.644,4.595-3.695,6.924-6.095,6.924c-0.955,0-2.035-0.349-3.212-1.039 c-0.314-0.184-0.663-0.274-1.011-0.274c-0.446,0-0.889,0.149-1.253,0.441c-0.647,0.52-0.906,1.385-0.651,2.174 c0.067,0.207,0.138,0.421,0.212,0.642c0.791,2.366,1.687,5.047,0.057,8.363c-0.327,0.665-0.259,1.457,0.176,2.057 c0.379,0.523,0.984,0.825,1.618,0.825c0.094,0,0.188-0.007,0.283-0.02l0.15-0.022c0.361-0.052,0.673-0.097,0.961-0.097 c0.432,0,1.442,0,3.797,2.52c0.115,0.123,0.243,0.229,0.38,0.317c-0.013,0.581,0.227,1.143,0.665,1.535 c3.457,3.098,9.035,4.9,11.891,5.19c0.068,0.007,0.135,0.01,0.202,0.01c0.624,0,1.217-0.292,1.597-0.796 c0.421-0.559,0.52-1.297,0.26-1.946c-0.059-0.147-0.106-0.255-0.157-0.369c-0.037-0.083-0.076-0.17-0.129-0.302 c-0.201-0.502-0.596-0.901-1.096-1.106c-4.789-1.969-6.259-4.685-6.319-4.799c-0.126-0.257-0.303-0.478-0.518-0.653 c0.119-0.415,0.104-0.868-0.065-1.291c-0.007-0.022-0.466-1.362,0.296-3.156c0.83-1.954,6.585-17.057,9.815-25.552 c1.836,4.888,4.577,12.174,6.686,17.729c0.112,0.296,0.292,0.557,0.52,0.766c-0.779,0.506-1.109,1.484-0.791,2.36 c0.055,0.15,1.345,3.697,2.435,6.244c0.544,1.415,1.876,5.07-5.723,8.232c-0.676,0.281-0.94,0.792-1.082,1.066 c-0.144,0.278-0.239,0.453-0.282,0.52c-0.428,0.658-0.432,1.507-0.01,2.169c0.371,0.581,1.009,0.925,1.685,0.925 c0.094,0,0.188-0.007,0.283-0.02c7.04-1.01,12.384-5.253,14.226-7.356c0.34-0.388,1.083-0.67,1.765-0.67 c0.254,0,0.416,0.041,0.473,0.065c0.256,0.111,0.526,0.165,0.794,0.165c0.508,0,1.007-0.193,1.388-0.559 c0.581-0.559,0.769-1.413,0.477-2.165c-1.59-4.093-0.298-7.447,0.323-9.059c0.303-0.786,0.08-1.678-0.556-2.23 c-0.372-0.323-0.84-0.489-1.311-0.489c-0.334,0-0.67,0.084-0.975,0.254c-1.173,0.656-2.27,0.988-3.261,0.988 c-2.335,0-3.565-1.897-3.616-1.978c-0.073-0.115-0.156-0.221-0.248-0.316c0.301-0.27,0.516-0.628,0.61-1.028 c0.128-0.543,0.024-1.115-0.287-1.577c-0.502-0.746-1.228-2.004-1.834-3.759l-0.021-0.06c-0.007-0.019-0.014-0.038-0.021-0.057 L34.328,2.285C34.028,1.501,33.278,1,32.462,1L32.462,1z"/></g></svg>